<svg width="341" height="311" viewBox="0 0 341 311" fill="none" xmlns="http://www.w3.org/2000/svg">
<path d="M170.499 0C264.658 0 341 69.6251 341 155.501C341 241.376 264.659 311 170.501 311C76.3425 311 0 241.375 0 155.501C0 69.6262 76.3308 0 170.499 0Z" fill="white"/>
<path d="M229.344 68.0122H111.646C91.1966 68.0122 74.5726 83.1833 74.5726 101.824V209.178C74.5726 227.828 91.2071 242.989 111.646 242.989H229.355C249.805 242.989 266.429 227.818 266.429 209.178V101.824C266.427 83.1833 249.793 68.0122 229.344 68.0122ZM241.023 87.5763L245.222 87.5667V116.606L213.147 116.704L213.04 87.6638L241.023 87.5763ZM170.501 126.227C197.109 126.227 202.597 149.008 202.597 155.509C202.597 171.633 188.19 184.772 170.501 184.772C152.801 184.772 138.404 171.633 138.404 155.509C138.393 149.008 143.892 126.227 170.501 126.227ZM245.403 207.058C245.403 216.301 237.166 223.823 227.011 223.823H113.628C103.483 223.823 95.235 216.311 95.235 207.058V136.024H121.875C119.403 141.573 118.007 149.154 118.007 155.51C118.007 181.888 141.536 203.356 170.468 203.356C199.4 203.356 222.917 181.888 222.917 155.51C222.917 149.154 221.521 141.573 219.059 136.024H245.38V207.058H245.403Z" fill="#2A488D"/>
</svg>
