<svg width="358" height="310" viewBox="0 0 358 310" fill="none" xmlns="http://www.w3.org/2000/svg">
<rect width="358" height="310" rx="44" fill="white"/>
<path d="M190.58 217.397C193.951 216.814 200.02 215.647 200.02 208.644C200.02 208.644 199.346 191.137 208.786 188.803C218.227 186.469 230.365 205.726 243.177 213.312C252.618 218.564 260.035 217.981 260.035 217.981L294.426 217.397C294.426 217.397 311.958 216.23 303.866 203.975C303.192 202.808 297.797 195.222 277.568 179.466C256.664 161.96 260.035 164.877 284.985 135.116C300.495 117.026 307.238 105.939 305.215 101.854C302.518 97.7688 291.729 98.3523 291.729 98.3523H253.292C249.246 98.3523 247.223 98.9359 245.2 101.854C245.2 101.854 239.131 116.442 231.039 128.114C214.181 153.206 207.438 154.373 204.066 152.623C197.997 149.705 199.346 138.618 199.346 131.031C199.346 104.771 204.066 95.4346 190.58 93.1004C181.813 91.9333 150.795 90.7661 141.354 94.851C136.634 97.1852 133.936 101.27 135.959 101.854C137.982 101.854 144.051 102.437 147.423 105.939C152.817 113.525 153.492 149.705 146.074 153.206C135.959 159.625 110.335 117.026 104.266 103.021C102.917 99.5194 100.894 98.9359 96.1742 97.7688H59.0863C55.0403 97.7688 48.9714 98.3523 51.6687 105.355C69.8755 138.034 107.638 217.981 175.745 217.397H190.58Z" fill="#2A488D"/>
</svg>
