<svg width="357" height="232" viewBox="0 0 357 232" fill="none" xmlns="http://www.w3.org/2000/svg">
<path d="M282.414 0H74.0285C33.1437 0 0 30.4286 0 67.9643V163.601C0 201.137 33.1437 231.566 74.0285 231.566H282.414C323.299 231.566 356.442 201.137 356.442 163.601V67.9643C356.442 30.4286 323.299 0 282.414 0ZM232.349 120.436L134.88 163.115C132.283 164.252 129.283 162.513 129.283 159.872V71.8472C129.283 69.1682 132.362 67.4319 134.965 68.6429L232.433 113.989C235.331 115.337 235.281 119.153 232.349 120.436Z" fill="white"/>
<path d="M282.414 0H74.0285C33.1437 0 0 30.4286 0 67.9643V163.601C0 201.137 33.1437 231.566 74.0285 231.566H282.414C323.299 231.566 356.442 201.137 356.442 163.601V67.9643C356.442 30.4286 323.299 0 282.414 0ZM232.349 120.436L134.88 163.115C132.283 164.252 129.283 162.513 129.283 159.872V71.8472C129.283 69.1682 132.362 67.4319 134.965 68.6429L232.433 113.989C235.331 115.337 235.281 119.153 232.349 120.436Z" stroke="black"/>
</svg>
